<?xml version="1.0" standalone="no"?>
<!DOCTYPE svg PUBLIC "-//W3C//DTD SVG 20010904//EN"
 "http://www.w3.org/TR/2001/REC-SVG-20010904/DTD/svg10.dtd">
<svg version="1.0" xmlns="http://www.w3.org/2000/svg"
 width="832.000000pt" height="832.000000pt" viewBox="0 0 832.000000 832.000000"
 preserveAspectRatio="xMidYMid meet">
<metadata>
Created by potrace 1.14, written by Peter Selinger 2001-2017
</metadata>
<g transform="translate(0.000000,832.000000) scale(0.100000,-0.100000)"
fill="#000000" stroke="none">
<path d="M2969 8315 c-7 -6 -369 -155 -386 -159 -7 -1 -16 -5 -19 -9 -4 -4
-16 -7 -26 -7 -10 0 -18 -4 -18 -8 0 -5 -6 -9 -12 -9 -11 -1 -217 -83 -283
-113 -11 -5 -67 -28 -125 -50 -58 -23 -116 -47 -130 -53 -14 -5 -29 -11 -35
-13 -11 -3 -197 -79 -230 -94 -11 -5 -60 -25 -110 -45 -49 -20 -99 -40 -110
-44 -11 -5 -38 -16 -60 -24 -22 -9 -101 -41 -175 -72 -74 -31 -139 -58 -145
-60 -37 -12 -74 -26 -275 -109 l-225 -92 -3 -532 c-1 -293 0 -532 3 -532 3 0
13 4 23 10 9 5 69 30 132 56 63 25 134 55 157 65 24 11 81 35 128 54 47 20 98
41 113 47 15 6 29 12 32 13 5 1 37 15 100 43 19 9 44 17 55 19 10 2 22 7 25
12 3 5 16 12 30 16 14 4 49 18 78 31 29 13 59 24 67 24 8 0 15 5 15 10 0 6 6
10 14 10 12 0 82 28 151 60 17 8 232 98 395 165 88 36 133 55 158 65 12 6 32
14 45 19 12 6 54 23 92 40 283 120 561 233 574 233 9 0 70 -23 136 -52 149
-64 169 -73 175 -75 30 -7 80 -31 80 -37 0 -4 3 -7 8 -6 4 0 15 -2 25 -5 9 -4
25 -10 35 -14 9 -3 20 -5 25 -5 4 1 7 -3 7 -8 0 -5 3 -9 8 -8 4 1 29 -8 56
-20 27 -12 55 -22 62 -22 8 0 14 -4 14 -10 0 -5 8 -10 18 -10 9 0 31 -7 47
-16 17 -9 52 -25 79 -35 27 -11 68 -28 90 -38 23 -10 129 -56 236 -101 107
-45 227 -96 265 -112 122 -52 140 -60 160 -68 11 -5 40 -17 65 -28 25 -11 86
-37 135 -57 50 -21 114 -48 143 -61 29 -13 55 -24 57 -24 2 0 28 -11 57 -24
30 -14 78 -34 108 -46 30 -12 59 -25 65 -30 5 -4 25 -11 43 -15 17 -3 32 -11
32 -16 0 -5 6 -9 14 -9 7 0 35 -9 62 -20 l49 -21 145 61 c80 34 156 67 170 72
14 6 30 12 35 14 9 2 72 29 130 54 11 5 49 21 85 36 36 14 79 32 95 39 17 8
91 39 165 70 74 31 146 62 160 68 14 5 30 11 35 13 6 1 63 25 127 53 65 28
119 51 122 51 3 0 33 13 68 28 35 16 79 35 98 42 19 7 58 23 85 35 28 12 129
55 225 95 96 39 191 79 210 88 19 9 37 17 40 17 3 1 19 8 35 15 17 7 35 14 40
16 6 1 52 21 104 43 52 23 101 41 108 41 7 0 13 5 13 10 0 6 7 10 15 10 9 0
29 7 45 15 l30 16 0 514 0 515 -37 -16 c-21 -9 -42 -17 -48 -18 -5 -1 -14 -4
-20 -8 -5 -3 -55 -24 -110 -46 -192 -76 -530 -213 -550 -222 -11 -5 -67 -28
-125 -51 -58 -22 -114 -45 -125 -50 -101 -44 -185 -76 -189 -71 -4 3 -6 0 -6
-6 0 -7 -6 -12 -12 -12 -10 0 -344 -131 -433 -170 -59 -26 -171 -72 -180 -74
-10 -3 -21 -7 -112 -47 -24 -11 -47 -19 -53 -19 -6 0 -18 -5 -28 -10 -52 -30
-367 -148 -376 -141 -6 5 -30 15 -53 22 -24 6 -43 16 -43 21 0 4 -6 8 -13 8
-11 0 -438 171 -522 209 -11 5 -67 28 -125 51 -120 49 -149 61 -205 85 -22 9
-49 21 -60 25 -11 4 -54 22 -95 38 -41 17 -131 54 -200 82 -69 28 -143 58
-165 68 -21 9 -42 17 -45 18 -3 0 -21 7 -40 16 -19 8 -98 41 -175 72 -77 32
-153 64 -170 71 -16 7 -66 27 -110 45 -83 33 -168 68 -245 100 -57 24 -85 32
-91 25z"/>
<path d="M2950 6210 c-13 -7 -34 -16 -60 -25 -3 -1 -18 -7 -33 -13 -16 -7
-102 -42 -190 -78 -89 -36 -176 -72 -194 -80 -17 -7 -34 -14 -38 -14 -3 0 -31
-11 -61 -25 -30 -14 -58 -25 -62 -25 -4 0 -20 -7 -35 -15 -15 -8 -36 -16 -45
-17 -9 -2 -19 -5 -22 -8 -3 -3 -111 -47 -240 -99 -129 -51 -248 -100 -265
-107 -16 -7 -104 -43 -195 -79 -91 -36 -174 -70 -185 -75 -11 -5 -56 -23 -100
-41 -44 -17 -93 -37 -110 -44 -32 -14 -330 -135 -345 -140 -6 -2 -51 -20 -117
-47 l-53 -22 0 -532 0 -533 42 18 c24 10 97 41 163 69 316 132 514 215 552
233 24 10 46 19 50 19 5 1 26 9 48 20 22 11 43 19 47 20 4 0 31 11 60 24 59
26 159 68 358 151 74 31 145 60 158 66 12 5 32 13 45 18 12 5 48 21 80 35 31
14 57 22 57 18 0 -4 4 -2 8 3 4 6 34 21 67 34 33 14 80 33 105 44 25 11 47 21
50 22 23 8 51 20 86 36 23 10 48 19 56 19 8 0 19 5 26 12 6 6 18 13 25 14 7 1
33 11 57 22 25 11 74 32 110 47 36 14 79 33 97 41 40 18 41 18 93 -7 24 -12
49 -22 54 -24 13 -2 60 -22 191 -80 89 -39 280 -120 285 -121 3 0 16 -5 30
-11 14 -6 165 -70 335 -143 171 -72 396 -168 500 -212 241 -102 239 -101 307
-132 31 -14 60 -26 63 -26 3 0 31 -11 61 -25 30 -14 57 -25 60 -25 2 0 42 -16
87 -36 270 -118 317 -137 331 -137 10 0 257 101 353 144 23 11 44 19 48 19 3
0 24 9 48 19 23 11 87 38 142 61 55 22 109 45 120 50 11 6 79 34 150 64 179
74 446 185 470 195 11 5 42 19 69 31 28 13 56 23 63 23 7 0 13 4 13 9 0 4 6 8
14 8 8 0 52 16 98 36 114 50 103 45 293 125 94 39 183 77 199 85 16 8 33 14
38 14 5 0 30 10 56 21 26 12 67 30 92 41 24 11 49 21 55 23 5 1 22 7 38 13
l27 12 0 515 c0 283 -2 515 -5 515 -7 0 -153 -58 -202 -81 -23 -10 -44 -19
-46 -19 -3 0 -22 -8 -43 -17 -22 -9 -41 -17 -44 -18 -3 -1 -18 -7 -33 -13 -16
-7 -30 -12 -32 -12 -2 0 -25 -10 -52 -22 -26 -12 -52 -23 -58 -23 -5 -1 -32
-12 -58 -23 -27 -12 -51 -22 -54 -22 -3 0 -19 -7 -36 -15 -18 -8 -68 -28 -112
-45 -44 -17 -93 -37 -110 -45 -16 -7 -66 -27 -110 -44 -44 -18 -89 -36 -100
-41 -28 -13 -418 -171 -430 -174 -5 -2 -23 -8 -40 -16 -16 -7 -39 -16 -50 -21
-11 -5 -117 -47 -235 -95 -118 -47 -221 -91 -227 -96 -7 -6 -13 -8 -13 -4 0 4
-13 0 -30 -9 -16 -9 -30 -12 -30 -8 0 5 -4 3 -8 -2 -4 -6 -57 -30 -119 -54
l-111 -43 -154 62 c-84 34 -166 67 -183 74 -64 28 -93 40 -175 73 -80 32 -100
41 -184 78 -19 8 -37 15 -41 15 -4 0 -21 6 -38 14 -18 7 -48 21 -67 29 -40 17
-243 100 -310 127 -25 10 -83 33 -130 53 -47 19 -114 47 -150 61 -36 15 -74
31 -85 36 -25 11 -109 46 -257 105 -62 25 -122 50 -133 55 -23 10 -115 48
-195 80 -30 12 -68 28 -85 35 -164 69 -175 72 -205 55z"/>
<path d="M2900 4093 c-47 -19 -94 -39 -105 -43 -40 -18 -180 -75 -185 -76 -3
0 -16 -5 -30 -11 -14 -6 -50 -21 -80 -32 -30 -12 -68 -28 -85 -35 -16 -8 -61
-27 -100 -42 -38 -15 -83 -33 -100 -40 -16 -6 -115 -47 -220 -89 -104 -42
-199 -80 -210 -85 -11 -5 -78 -32 -150 -61 -71 -28 -157 -62 -190 -76 -65 -27
-63 -27 -180 -73 -44 -18 -93 -38 -110 -45 -43 -18 -104 -43 -320 -129 -104
-42 -200 -82 -212 -88 l-23 -11 0 -530 c0 -419 3 -528 13 -524 6 3 32 13 57
22 25 10 49 22 55 27 5 4 15 8 22 8 7 0 32 9 56 19 23 11 71 32 107 46 36 14
83 34 105 44 22 10 119 51 215 90 96 40 189 79 205 86 83 37 395 165 404 165
6 0 11 5 11 10 0 6 5 10 12 10 10 0 394 157 553 225 17 7 72 31 123 54 50 22
92 37 92 34 0 -3 6 -1 13 5 6 5 53 26 102 46 50 21 104 43 120 51 112 50 126
53 171 31 28 -14 296 -127 639 -271 88 -37 167 -70 176 -75 9 -5 54 -24 100
-43 46 -20 102 -43 124 -53 22 -10 42 -18 45 -19 3 -1 23 -9 45 -19 22 -9 77
-33 123 -52 45 -19 101 -42 125 -53 99 -44 333 -143 342 -145 6 -1 25 -9 44
-19 19 -9 40 -17 48 -17 7 0 13 -5 13 -12 0 -6 3 -9 6 -6 5 6 153 -54 217 -87
16 -8 35 -15 43 -15 8 0 14 -4 14 -8 0 -5 6 -9 13 -9 6 0 51 -17 100 -38 l87
-38 48 18 c26 10 70 28 97 40 28 12 118 50 200 84 83 35 164 69 182 77 17 8
34 14 37 14 3 0 31 12 63 26 32 14 67 30 78 34 11 5 68 29 127 54 59 25 110
46 113 46 3 0 25 9 48 19 23 10 114 49 202 86 88 37 174 73 190 81 17 7 54 23
84 34 30 12 73 29 95 39 23 11 70 31 106 46 36 14 84 35 107 46 24 10 45 19
48 19 4 0 27 9 53 21 52 22 58 25 152 64 36 14 74 30 85 35 53 24 233 98 253
104 l22 7 0 521 c0 415 -3 518 -12 510 -7 -6 -16 -11 -20 -11 -13 -2 -41 -12
-73 -26 -16 -7 -149 -61 -295 -119 -289 -116 -293 -118 -330 -134 -14 -6 -158
-65 -320 -130 -353 -142 -292 -117 -485 -197 -88 -36 -165 -67 -172 -69 -7 -1
-16 -5 -19 -9 -4 -4 -16 -7 -26 -7 -10 0 -18 -5 -18 -12 0 -6 -3 -9 -6 -6 -4
5 -73 -21 -189 -72 -11 -5 -90 -36 -175 -70 -85 -33 -164 -65 -175 -70 -72
-34 -80 -32 -262 51 -24 10 -45 19 -48 19 -3 0 -122 48 -263 106 -141 58 -329
135 -417 171 -88 35 -176 71 -195 80 -19 8 -44 19 -55 24 -11 5 -99 40 -195
79 -191 77 -203 82 -240 99 -33 15 -314 130 -470 192 -112 46 -147 60 -215 90
-62 27 -69 27 -155 -8z"/>
<path d="M2915 2004 c-33 -15 -69 -30 -80 -35 -11 -4 -49 -20 -85 -34 -36 -14
-74 -30 -85 -34 -44 -19 -160 -66 -165 -67 -3 0 -16 -5 -30 -11 -14 -6 -88
-36 -165 -67 -77 -31 -149 -61 -160 -66 -11 -5 -58 -24 -105 -43 -47 -19 -94
-38 -105 -42 -11 -5 -22 -9 -25 -10 -3 -1 -18 -7 -33 -13 -16 -7 -30 -12 -33
-12 -2 0 -23 -9 -47 -20 -23 -10 -161 -67 -307 -126 -146 -58 -276 -111 -290
-117 -14 -6 -27 -11 -30 -12 -7 -2 -31 -12 -140 -57 -52 -22 -99 -41 -105 -42
-5 -1 -32 -12 -59 -24 -27 -12 -52 -22 -55 -22 -4 0 -25 -8 -47 -19 -21 -10
-67 -29 -101 -42 l-63 -24 0 -532 c0 -589 -6 -540 60 -506 14 7 30 13 36 13 6
0 24 6 40 14 24 13 82 37 324 139 14 6 27 11 30 12 3 1 23 9 45 19 63 28 89
39 100 42 12 3 467 194 562 235 24 11 82 35 130 55 49 20 102 42 118 49 17 7
86 37 155 65 69 28 139 57 155 65 17 7 113 48 215 90 102 43 196 82 210 88 14
6 27 11 30 12 3 0 27 11 54 23 27 12 51 22 55 22 3 0 19 7 35 15 27 14 34 13
130 -26 55 -22 119 -49 141 -59 22 -10 69 -30 105 -45 36 -15 83 -35 105 -45
41 -18 320 -137 455 -193 41 -17 79 -35 85 -39 5 -4 17 -8 27 -8 10 0 18 -5
18 -10 0 -6 3 -9 8 -8 4 0 14 -1 22 -4 8 -4 24 -9 35 -14 11 -4 23 -6 28 -6 4
1 7 -2 7 -8 0 -5 5 -10 11 -10 6 0 37 -11 68 -24 53 -23 130 -56 451 -192 74
-31 159 -67 188 -80 29 -13 54 -24 56 -24 3 0 26 -10 53 -22 26 -12 50 -22 53
-23 3 -1 22 -9 44 -18 21 -9 40 -17 42 -17 2 0 29 -12 61 -26 31 -15 63 -27
70 -28 7 -1 19 -8 25 -14 7 -7 17 -12 23 -12 7 0 26 -7 42 -15 32 -16 57 -10
171 40 75 34 98 44 122 51 14 3 27 10 30 13 3 4 39 20 80 36 41 16 99 39 128
52 28 12 55 24 60 24 4 1 35 15 70 30 34 16 62 25 62 21 0 -4 4 -2 8 3 4 6
115 55 247 110 132 54 245 102 252 107 6 5 24 11 40 14 15 3 36 13 46 22 11 9
21 16 23 15 5 -3 29 5 84 29 25 11 50 21 55 22 6 2 21 8 35 14 139 59 577 244
585 246 6 2 27 10 47 20 21 9 40 16 42 16 3 0 29 11 58 24 29 13 80 35 113 48
l60 25 3 517 c1 284 1 516 -1 516 -1 0 -52 -21 -112 -46 -61 -25 -114 -47
-120 -48 -17 -5 -48 -17 -85 -34 -19 -9 -37 -17 -40 -17 -3 -1 -14 -5 -25 -10
-11 -4 -47 -19 -80 -32 -33 -13 -69 -28 -80 -33 -11 -5 -63 -26 -115 -46 -52
-20 -108 -42 -125 -50 -16 -7 -104 -43 -195 -80 -91 -36 -176 -71 -190 -77
-14 -6 -27 -11 -30 -12 -3 -1 -22 -9 -44 -18 -21 -9 -40 -17 -42 -17 -1 0 -92
-36 -201 -81 -222 -91 -235 -96 -245 -98 -4 -1 -45 -18 -90 -38 -46 -19 -89
-36 -95 -36 -7 0 -13 -4 -13 -9 0 -4 -5 -8 -12 -8 -10 0 -282 -108 -400 -159
-28 -12 -50 -16 -53 -11 -4 6 -13 10 -21 10 -8 0 -34 9 -57 19 -23 11 -78 33
-122 51 -44 17 -96 38 -115 47 -75 32 -233 97 -240 98 -3 1 -22 9 -44 18 -21
9 -40 17 -42 17 -2 0 -28 11 -58 25 -30 14 -58 25 -61 25 -3 0 -25 9 -48 19
-23 10 -116 49 -207 85 -91 37 -174 71 -185 76 -11 5 -60 26 -110 46 -49 20
-103 42 -120 49 -74 30 -142 58 -160 65 -11 5 -36 15 -55 23 -19 8 -98 41
-175 72 -77 31 -153 63 -169 71 -16 8 -33 14 -37 14 -5 0 -33 12 -63 26 -30
14 -60 27 -68 28 -13 3 -62 23 -123 51 -56 25 -78 25 -140 -1z"/>
</g>
</svg>
