<?xml version="1.0" encoding="utf-8"?>
<!-- Generator: Adobe Illustrator 27.9.0, SVG Export Plug-In . SVG Version: 6.00 Build 0)  -->
<svg version="1.1" id="Ebene_1" xmlns="http://www.w3.org/2000/svg" xmlns:xlink="http://www.w3.org/1999/xlink" x="0px" y="0px"
	 viewBox="0 0 115.8 39.8" style="enable-background:new 0 0 115.8 39.8;" xml:space="preserve">
<style type="text/css">
	.st0{clip-path:url(#SVGID_00000029746545473942643740000012456602700083460242_);fill:#FFFFFF;}
	.st1{clip-path:url(#SVGID_00000004528054760970781620000018068739682783340720_);fill:#FFFFFF;}
	.st2{clip-path:url(#SVGID_00000093145509192811660620000007819609956601659269_);fill:#FFFFFF;}
	.st3{clip-path:url(#SVGID_00000170240279582990702570000014857720821781011350_);fill:#FFFFFF;}
	.st4{clip-path:url(#SVGID_00000172416049241497153150000002232250839954914452_);fill:#FFFFFF;}
	.st5{clip-path:url(#SVGID_00000173121032658119113870000001411412977849374343_);fill:#FFFFFF;}
</style>
<g>
	<defs>
		<path id="SVGID_1_" d="M27.6,19.1l-8.7,20.4h2.4c1.3,0,2.4-0.8,2.9-1.9c0,0,0,0,0,0l5.4-13.2l6.1,15h4.7l-7.9-18.6
			c-0.5-1.1-1.6-1.8-2.8-1.8H27.6z"/>
	</defs>
	<use xlink:href="#SVGID_1_"  style="overflow:visible;fill:#FFFFFF;"/>
	<clipPath id="SVGID_00000013169866488638697850000012013828729924864691_">
		<use xlink:href="#SVGID_1_"  style="overflow:visible;"/>
	</clipPath>
	
		<rect x="18.9" y="19.1" style="clip-path:url(#SVGID_00000013169866488638697850000012013828729924864691_);fill:#FFFFFF;" width="21.5" height="20.4"/>
</g>
<g>
	<defs>
		<path id="SVGID_00000044873831854449433680000010062825497245895346_" d="M55.9,19.2l-5.3,14.3l-4.6-12.4
			c-0.5-1.1-1.6-1.8-2.8-1.8h-2.8l8.2,20.4h1.8c1.3,0,2.4-0.8,2.9-1.9c0,0,0,0,0,0l7.4-18.5H55.9z"/>
	</defs>
	<use xlink:href="#SVGID_00000044873831854449433680000010062825497245895346_"  style="overflow:visible;fill:#FFFFFF;"/>
	<clipPath id="SVGID_00000041987418855401899700000016062482953306690998_">
		<use xlink:href="#SVGID_00000044873831854449433680000010062825497245895346_"  style="overflow:visible;"/>
	</clipPath>
	
		<rect x="40.3" y="19.2" style="clip-path:url(#SVGID_00000041987418855401899700000016062482953306690998_);fill:#FFFFFF;" width="20.3" height="20.4"/>
</g>
<g>
	<defs>
		<path id="SVGID_00000065761152270635356840000012917521560520683955_" d="M0.8,25L0.8,25c0,4.1,2.6,5.2,6.7,6.2
			c3.4,0.9,4.1,1.4,4.1,2.6v0.1c0,1.2-1.1,1.9-2.9,1.9c-1.5,0-2.8-0.4-4-1c-1.3-0.7-2.9-0.4-3.9,0.8l-0.8,1c2.4,2.2,5.5,3.2,8.6,3.2
			c4.4,0,7.4-2.3,7.4-6.3v-0.1c0-3.5-2.3-5-6.4-6.1c-3.5-0.9-4.4-1.3-4.4-2.7v-0.1c0-1,0.9-1.8,2.6-1.8c1,0,2,0.3,3.1,0.7
			c0,0,0,0,0,0c0,0,0,0,0,0c1.4,0.6,3,0.1,3.8-1.1l0.7-1c-2.1-1.6-4.6-2.6-7.5-2.6C3.8,18.9,0.8,21.4,0.8,25"/>
	</defs>
	<use xlink:href="#SVGID_00000065761152270635356840000012917521560520683955_"  style="overflow:visible;fill:#FFFFFF;"/>
	<clipPath id="SVGID_00000075142215268190787670000007801122809779769778_">
		<use xlink:href="#SVGID_00000065761152270635356840000012917521560520683955_"  style="overflow:visible;"/>
	</clipPath>
	
		<rect y="18.9" style="clip-path:url(#SVGID_00000075142215268190787670000007801122809779769778_);fill:#FFFFFF;" width="16" height="20.8"/>
</g>
<g>
	<defs>
		<rect id="SVGID_00000004526630010467393680000014082946287511057536_" x="65.5" y="19.2" width="4.5" height="20.3"/>
	</defs>
	<use xlink:href="#SVGID_00000004526630010467393680000014082946287511057536_"  style="overflow:visible;fill:#FFFFFF;"/>
	<clipPath id="SVGID_00000065055674239192481510000006063171001079057560_">
		<use xlink:href="#SVGID_00000004526630010467393680000014082946287511057536_"  style="overflow:visible;"/>
	</clipPath>
	
		<rect x="65.5" y="19.2" style="clip-path:url(#SVGID_00000065055674239192481510000006063171001079057560_);fill:#FFFFFF;" width="4.5" height="20.3"/>
</g>
<g>
	<defs>
		<path id="SVGID_00000057828624069319895500000009162296886265197219_" d="M85,33.5l-4.6-12.4c-0.5-1.1-1.6-1.8-2.8-1.8h-2.8
			l8.2,20.4h1.8c1.3,0,2.4-0.8,2.9-1.9c0,0,0,0,0,0c6.3-21,15.2-31.3,25.7-37.8C113.4,0,91.5,5.6,85,33.5"/>
	</defs>
	<use xlink:href="#SVGID_00000057828624069319895500000009162296886265197219_"  style="overflow:visible;fill:#FFFFFF;"/>
	<clipPath id="SVGID_00000119821748108180819430000015281413935279544230_">
		<use xlink:href="#SVGID_00000057828624069319895500000009162296886265197219_"  style="overflow:visible;"/>
	</clipPath>
	
		<rect x="74.7" style="clip-path:url(#SVGID_00000119821748108180819430000015281413935279544230_);fill:#FFFFFF;" width="38.6" height="39.6"/>
</g>
<g>
	<defs>
		<path id="SVGID_00000158711725370496135380000009565249998292270009_" d="M103,19.1l-8.7,20.4h2.4c1.3,0,2.4-0.8,2.9-1.9
			c0,0,0,0,0,0l5.4-13.2l6.1,15h4.7l-7.9-18.6c-0.5-1.1-1.6-1.8-2.8-1.8H103z"/>
	</defs>
	<use xlink:href="#SVGID_00000158711725370496135380000009565249998292270009_"  style="overflow:visible;fill:#FFFFFF;"/>
	<clipPath id="SVGID_00000178174227985328705580000014879974327987976070_">
		<use xlink:href="#SVGID_00000158711725370496135380000009565249998292270009_"  style="overflow:visible;"/>
	</clipPath>
	
		<rect x="94.3" y="19.1" style="clip-path:url(#SVGID_00000178174227985328705580000014879974327987976070_);fill:#FFFFFF;" width="21.5" height="20.4"/>
</g>
</svg>
