<?xml version="1.0" encoding="utf-8"?>
<!-- Generator: Adobe Illustrator 27.9.0, SVG Export Plug-In . SVG Version: 6.00 Build 0)  -->
<svg version="1.1" id="Ebene_1" xmlns="http://www.w3.org/2000/svg" xmlns:xlink="http://www.w3.org/1999/xlink" x="0px" y="0px"
	 viewBox="0 0 403.4 64.8" style="enable-background:new 0 0 403.4 64.8;" xml:space="preserve">
<style type="text/css">
	.st0{fill:none;stroke:#FFFFFF;stroke-miterlimit:10;}
</style>
<polyline class="st0" points="0.4,63.8 0.4,63.7 29.1,51.9 55.3,62.7 57.9,63.8 57.9,63.8 86.7,51.9 86.7,51.9 115.4,63.8 
	144.2,51.9 170.4,62.7 172.9,63.8 172.9,63.8 201.7,51.9 201.7,51.9 230.5,63.8 259.2,51.9 285.4,62.7 288,63.8 288,63.8 
	316.8,51.9 316.8,51.9 345.5,63.8 374.3,51.9 400.5,62.7 402.9,63.7 403.1,63.8 403.1,63.8 "/>
<polyline class="st0" points="0.4,53.6 0.4,53.6 29.1,41.7 55.3,52.5 57.9,53.6 57.9,53.6 86.7,41.7 86.7,41.7 115.4,53.6 
	144.2,41.7 170.4,52.5 172.9,53.6 172.9,53.6 201.7,41.7 201.7,41.7 230.5,53.6 259.2,41.7 285.4,52.5 288,53.6 288,53.6 
	316.8,41.7 316.8,41.7 345.5,53.6 374.3,41.7 400.5,52.5 402.9,53.6 403.1,53.6 403.1,53.6 "/>
<polyline class="st0" points="0.4,43.4 0.4,43.4 29.1,31.6 55.3,42.4 57.9,43.4 57.9,43.4 86.7,31.6 86.7,31.6 115.4,43.4 
	144.2,31.6 170.4,42.4 172.9,43.4 172.9,43.4 201.7,31.6 201.7,31.6 230.5,43.4 259.2,31.6 285.4,42.4 288,43.4 288,43.4 
	316.8,31.6 316.8,31.6 345.5,43.4 374.3,31.6 400.5,42.4 402.9,43.4 403.1,43.4 403.1,43.4 "/>
<polyline class="st0" points="0.4,33.3 0.4,33.3 29.1,21.4 55.3,32.2 57.9,33.3 57.9,33.3 86.7,21.4 86.7,21.4 115.4,33.3 
	144.2,21.4 170.4,32.2 172.9,33.3 172.9,33.3 201.7,21.4 201.7,21.4 230.5,33.3 259.2,21.4 285.4,32.2 288,33.3 288,33.3 
	316.8,21.4 316.8,21.4 345.5,33.3 374.3,21.4 400.5,32.2 402.9,33.2 403.1,33.3 403.1,33.3 "/>
<polyline class="st0" points="0.4,23.1 0.4,23.1 29.1,11.3 55.3,22 57.9,23.1 57.9,23.1 86.7,11.2 86.7,11.2 115.4,23.1 144.2,11.3 
	170.4,22 172.9,23.1 172.9,23.1 201.7,11.2 201.7,11.2 230.5,23.1 259.2,11.3 285.4,22 288,23.1 288,23.1 316.8,11.2 316.8,11.2 
	345.5,23.1 374.3,11.3 400.5,22 402.9,23.1 403.1,23.1 403.1,23.1 "/>
<polyline class="st0" points="0.4,12.9 0.4,12.9 29.1,1.1 55.3,11.9 57.9,12.9 57.9,12.9 86.7,1.1 86.7,1.1 115.4,12.9 144.2,1.1 
	170.4,11.9 172.9,12.9 172.9,12.9 201.7,1.1 201.7,1.1 230.5,12.9 259.2,1.1 285.4,11.9 288,12.9 288,12.9 316.8,1.1 316.8,1.1 
	345.5,12.9 374.3,1.1 400.5,11.9 402.9,12.9 403.1,12.9 403.1,12.9 "/>
</svg>
