<?xml version="1.0" encoding="utf-8"?>
<!-- Generator: Adobe Illustrator 27.9.0, SVG Export Plug-In . SVG Version: 6.00 Build 0)  -->
<svg version="1.1" id="Ebene_1" xmlns="http://www.w3.org/2000/svg" xmlns:xlink="http://www.w3.org/1999/xlink" x="0px" y="0px"
	 viewBox="0 0 534.9 534.9" style="enable-background:new 0 0 534.9 534.9;" xml:space="preserve">
<style type="text/css">
	.st0{fill:#FFFFFF;}
</style>
<path class="st0" d="M267.5,405.2c76,0,137.8-61.8,137.8-137.8c0-76-61.8-137.8-137.8-137.8c-76,0-137.8,61.8-137.8,137.8
	C129.7,343.4,191.5,405.2,267.5,405.2z M267.5,187.9c43.9,0,79.6,35.7,79.6,79.5c0,43.9-35.7,79.6-79.6,79.6
	c-43.9,0-79.6-35.7-79.6-79.6C187.9,223.6,223.6,187.9,267.5,187.9z"/>
<ellipse transform="matrix(0.9871 -0.1602 0.1602 0.9871 -14.8264 67.2425)" class="st0" cx="409.7" cy="125.6" rx="32.6" ry="32.6"/>
<path class="st0" d="M134.9,534.9H400c74.4,0,134.9-60.5,134.9-134.9h0V134.9C534.9,60.5,474.4,0,400,0H134.9C60.5,0,0,60.5,0,134.9
	V400C0,474.4,60.5,534.9,134.9,534.9z M58.2,134.9c0-42.3,34.4-76.7,76.7-76.7H400c42.3,0,76.7,34.4,76.7,76.7V400
	c0,42.3-34.4,76.7-76.7,76.7H134.9c-42.3,0-76.7-34.4-76.7-76.7V134.9z"/>
</svg>
