<?xml version="1.0" encoding="utf-8"?>
<!-- Generator: Adobe Illustrator 27.9.0, SVG Export Plug-In . SVG Version: 6.00 Build 0)  -->
<svg version="1.1" id="Ebene_1" xmlns="http://www.w3.org/2000/svg" xmlns:xlink="http://www.w3.org/1999/xlink" x="0px" y="0px"
	 viewBox="0 0 413.2 142.2" style="enable-background:new 0 0 413.2 142.2;" xml:space="preserve">
<style type="text/css">
	.st0{fill:#FFFFFF;}
</style>
<g>
	<path class="st0" d="M403.7,0.4c0-0.1-0.1-0.3-0.1-0.4c-3.2,1.2-6.6,2.2-9.7,3.6c-19.5,8.6-36.4,20.9-50.7,36.7
		c-19.6,21.7-32.1,47.1-39.3,75.3c-0.2,0.8-0.5,1.7-0.9,3.1c-0.5-1-0.7-1.3-0.8-1.7c-4.9-13.3-9.9-26.5-14.7-39.8
		c-1.2-3.4-3.3-6.1-6.6-7.6c-4.6-2-9.4-0.8-14.5-1c0.6,1.7,1.1,3,1.5,4.2c8.4,20.9,16.8,41.8,25.2,62.7c3.1,7.6,0.8,6.1,9.3,6.1
		c4.9,0,9.2-3.3,10.6-7.9c0.6-1.9,1.1-3.8,1.7-5.7c6.4-20.5,14.3-40.3,24.8-59.1c13-23.3,29.5-43.7,51.2-59.5
		C395,6.3,399.3,3.4,403.7,0.4z M33.6,142.2c3.4,0.1,9.6-1.4,15.1-5.5c8.7-6.4,10.8-20.5,4.2-29c-3.3-4.2-7.9-6.4-12.8-8
		c-5.7-2-11.6-3.5-17.3-5.6c-3.9-1.4-5-3.5-4.4-7.1c0.4-2.4,2.9-4.4,6.1-4.9c4.2-0.7,8.3,0.2,12.2,1.7c7.2,2.8,11.3,1.7,16-4.2
		c2.1-2.7,2.1-2.8-0.7-4.7c-8.8-6.1-18.7-8.3-29.2-7c-8.4,1-15.4,4.8-19,13.1c-3.7,8.7-2.2,21.6,9.4,26.6c3.6,1.5,7.4,2.6,11.1,3.8
		c4.3,1.5,8.6,2.8,12.9,4.4c2.4,0.9,3.4,2.9,3.3,5.5c-0.2,3.3-2.8,5.8-7,6.3c-5.5,0.6-10.9,0-15.8-2.7c-6.2-3.5-12.9-2.2-16.9,3.6
		c-1.3,1.8-1.1,2.6,0.5,3.8C9.9,138.8,19.5,142.1,33.6,142.2z M216.1,68.6c-5.7,0-10.9-0.1-16.2,0.1c-0.6,0-1.5,1.1-1.8,1.9
		c-5,13.2-9.8,26.5-14.8,39.8c-1,2.6-2,5.3-3.2,8.4c-0.6-1.3-1-2-1.3-2.7c-4.4-11.8-8.6-23.5-13.1-35.2c-1.2-3.2-2.6-6.7-4.9-9.1
		c-4.7-5-11.1-2.7-17.2-3c0.4,1.2,0.5,1.9,0.8,2.5c8.7,21.6,17.3,43.3,26,64.9c2.3,5.7,2.3,5.6,8.5,5.6c5.1,0,9.1-2.7,11-7.4
		c8.3-20.5,16.5-41.1,24.7-61.6C215.2,71.4,215.6,70.2,216.1,68.6z M374.6,87.9c2.7,6.5,5,12.2,7.4,18c4.5,11.1,9,22.2,13.5,33.3
		c0.6,1.6,1.6,2.2,3.3,2.1c2.4-0.1,4.8,0,7.2,0c2.3,0,4.5,0,7.3,0c-0.9-2.1-1.5-3.6-2.1-5.1c-8.5-20.1-17-40.1-25.5-60.2
		c-2.2-5.2-6.1-7.8-11.8-7.8c-1.3,0-2.6,0.1-3.8,0c-2-0.2-3,0.7-3.8,2.5c-9.2,21.8-18.5,43.7-27.8,65.5c-0.7,1.6-1.2,3.2-2,5.2
		c2.7,0,4.8,0,6.9,0c7.1,0,10.4-2.1,13-8.7c4.1-10.1,8.2-20.3,12.4-30.4C370.6,97.6,372.5,93,374.6,87.9z M143.6,141.1
		c-0.5-1.3-0.8-2.1-1.1-2.9c-8.4-19.7-16.7-39.4-25.1-59.1c-4.2-9.9-6.6-11.3-17.6-11c-1.5,0-2.3,0.5-2.9,1.9
		c-1.8,4.5-3.7,9-5.6,13.5c-7.8,18.3-15.6,36.6-23.4,54.9c-0.3,0.8-0.5,1.6-0.9,2.8c3,0,5.6,0,8.2,0c5.2-0.1,9.1-2.7,11.1-7.6
		c4.9-12.1,9.8-24.1,14.7-36.2c1.2-3,2.5-6,4-9.6c1.7,4,3.1,7.4,4.5,10.9c5.5,13.5,11,27.1,16.5,40.6c0.6,1.4,1.4,2,2.9,1.9
		c2.6-0.1,5.3,0,7.9,0C139,141.1,141.1,141.1,143.6,141.1z M249.3,104.8c0-11.3,0-22.5,0-33.8c0-1.8-0.5-2.6-2.4-2.5
		c-3.8,0.1-7.5,0.1-11.3,0c-1.7,0-2.4,0.5-2.4,2.3c0,22.7,0,45.4,0,68.1c0,1.8,0.7,2.3,2.4,2.3c3.5-0.1,7-0.2,10.5,0
		c2.4,0.1,3.2-0.6,3.2-3.1C249.3,127,249.3,115.9,249.3,104.8z"/>
	<path class="st0" d="M403.7,0.4c-4.3,3-8.7,5.9-12.9,9c-21.7,15.8-38.2,36.1-51.2,59.5c-10.4,18.8-18.4,38.6-24.8,59.1
		c-0.6,1.9-1.1,3.8-1.7,5.7c-1.4,4.6-5.8,7.9-10.6,7.9c-8.5-0.1-6.2,1.5-9.3-6.1c-8.5-20.9-16.8-41.8-25.2-62.7
		c-0.5-1.2-0.9-2.5-1.5-4.2c5.1,0.2,9.9-1.1,14.5,1c3.3,1.5,5.3,4.1,6.6,7.6c4.8,13.3,9.8,26.5,14.7,39.8c0.1,0.4,0.3,0.7,0.8,1.7
		c0.4-1.4,0.7-2.2,0.9-3.1c7.2-28.2,19.7-53.6,39.3-75.3c14.3-15.8,31.2-28.1,50.7-36.7c3.2-1.4,6.5-2.4,9.7-3.6
		C403.6,0.1,403.6,0.3,403.7,0.4z"/>
	<path class="st0" d="M33.6,142.2c-14.1-0.1-23.7-3.4-32.3-9.9c-1.6-1.2-1.8-2-0.5-3.8c4-5.8,10.7-7.1,16.9-3.6
		c4.9,2.7,10.3,3.3,15.8,2.7c4.1-0.5,6.8-2.9,7-6.3c0.1-2.6-0.8-4.6-3.3-5.5c-4.3-1.6-8.6-2.9-12.9-4.4c-3.7-1.3-7.5-2.3-11.1-3.8
		C1.6,102.5,0.1,89.6,3.8,81c3.6-8.2,10.6-12.1,19-13.1c10.5-1.3,20.4,0.9,29.2,7c2.8,1.9,2.8,2.1,0.7,4.7c-4.7,5.9-8.8,7-16,4.2
		c-3.9-1.5-7.9-2.4-12.2-1.7c-3.3,0.5-5.8,2.4-6.1,4.9c-0.5,3.7,0.6,5.8,4.4,7.1c5.7,2,11.6,3.6,17.3,5.6c4.9,1.7,9.5,3.8,12.8,8
		c6.5,8.5,4.5,22.6-4.2,29C43.2,140.8,37,142.3,33.6,142.2z"/>
	<path class="st0" d="M216.1,68.6c-0.5,1.6-0.9,2.9-1.4,4.1c-8.2,20.5-16.5,41.1-24.7,61.6c-1.9,4.7-5.9,7.4-11,7.4
		c-6.2,0-6.2,0.1-8.5-5.6c-8.7-21.6-17.4-43.3-26-64.9c-0.3-0.7-0.4-1.3-0.8-2.5c6.1,0.4,12.5-2,17.2,3c2.3,2.4,3.7,5.9,4.9,9.1
		c4.5,11.7,8.8,23.5,13.1,35.2c0.3,0.7,0.7,1.4,1.3,2.7c1.2-3.1,2.2-5.8,3.2-8.4c4.9-13.3,9.8-26.5,14.8-39.8
		c0.3-0.8,1.1-1.9,1.8-1.9C205.2,68.5,210.4,68.6,216.1,68.6z"/>
	<path class="st0" d="M374.6,87.9c-2.1,5.2-4,9.7-5.9,14.3c-4.1,10.1-8.2,20.3-12.4,30.4c-2.7,6.5-5.9,8.7-13,8.7
		c-2.1,0-4.3,0-6.9,0c0.8-2,1.4-3.6,2-5.2c9.3-21.8,18.6-43.6,27.8-65.5c0.8-1.8,1.8-2.7,3.8-2.5c1.3,0.1,2.6,0,3.8,0
		c5.7,0,9.6,2.6,11.8,7.8c8.5,20.1,17,40.1,25.5,60.2c0.6,1.5,1.2,3,2.1,5.1c-2.8,0-5.1,0-7.3,0c-2.4,0-4.8-0.1-7.2,0
		c-1.7,0.1-2.6-0.5-3.3-2.1c-4.4-11.1-9-22.2-13.5-33.3C379.6,100.1,377.2,94.3,374.6,87.9z"/>
	<path class="st0" d="M143.6,141.1c-2.5,0-4.6,0-6.8,0c-2.6,0-5.3-0.1-7.9,0c-1.5,0-2.3-0.5-2.9-1.9c-5.5-13.5-11-27.1-16.5-40.6
		c-1.4-3.4-2.8-6.9-4.5-10.9c-1.5,3.6-2.8,6.6-4,9.6c-4.9,12.1-9.8,24.1-14.7,36.2c-2,4.9-5.9,7.5-11.1,7.6c-2.6,0-5.2,0-8.2,0
		c0.4-1.2,0.5-2,0.9-2.8c7.8-18.3,15.6-36.6,23.4-54.9c1.9-4.5,3.8-9,5.6-13.5c0.6-1.4,1.4-1.9,2.9-1.9c11-0.2,13.4,1.2,17.6,11
		c8.4,19.7,16.7,39.4,25.1,59.1C142.9,139,143.1,139.8,143.6,141.1z"/>
	<path class="st0" d="M249.3,104.8c0,11.1-0.1,22.2,0.1,33.3c0,2.5-0.8,3.2-3.2,3.1c-3.5-0.2-7-0.1-10.5,0c-1.7,0-2.4-0.5-2.4-2.3
		c0-22.7,0-45.4,0-68.1c0-1.8,0.7-2.4,2.4-2.3c3.8,0.1,7.5,0.1,11.3,0c1.9-0.1,2.4,0.7,2.4,2.5C249.3,82.3,249.3,93.6,249.3,104.8z"
		/>
</g>
</svg>
