<?xml version="1.0" encoding="utf-8"?>
<!-- Generator: Adobe Illustrator 27.9.0, SVG Export Plug-In . SVG Version: 6.00 Build 0)  -->
<svg version="1.1" id="Ebene_1" xmlns="http://www.w3.org/2000/svg" xmlns:xlink="http://www.w3.org/1999/xlink" x="0px" y="0px"
	 viewBox="0 0 550.1 244.1" style="enable-background:new 0 0 550.1 244.1;" xml:space="preserve">
<style type="text/css">
	.st0{fill:#FFFFFF;}
</style>
<polygon class="st0" points="248.9,243.1 268,243.1 268,145.2 248.8,145.2 "/>
<polygon class="st0" points="319.4,208.1 302.2,145.2 271.6,145.2 271.6,243.1 291.4,243.1 291.4,178.1 307.9,243.1 339.2,243.1 
	339.2,145.2 319.4,145.2 "/>
<polygon class="st0" points="343.6,243.1 378,243.1 378,225.5 363.3,225.5 363.3,201.3 377.1,201.3 377.1,184.9 363.3,184.9 
	363.3,162.8 378,162.8 378,145.2 343.6,145.2 "/>
<polygon class="st0" points="401.9,225.5 401.9,145.2 382.3,145.2 382.3,243.1 416.6,243.1 416.6,225.5 "/>
<g>
	<path class="st0" d="M500.4,144.7c-27.4,0-49.7,22.3-49.7,49.7c0,27.4,22.2,49.7,49.7,49.7c27.4,0,49.6-22.3,49.6-49.7
		C550.1,167,527.8,144.7,500.4,144.7 M500.2,221.6c-15,0-27.1-12.2-27.1-27.2s12.1-27.2,27.1-27.2c15,0,27.1,12.2,27.1,27.2
		S515.2,221.6,500.2,221.6"/>
	<polygon class="st0" points="82.1,243.1 63.1,243.1 63.1,175.3 54.4,243.1 28,243.1 19.4,175.3 19.4,243.1 0,243.1 0,145.2 
		32.9,145.2 40.5,209.8 48.5,145.2 82.1,145.2 	"/>
	<path class="st0" d="M212.5,186.7c12.5-0.7,12.1-20.1-0.5-20.5h-35.2v20.5H212.5z M154.6,243.2v-97.9h56.9
		c41.5,1.4,40.3,49.1,12.1,56.4l24.7,41.5h-28l-22.1-38.9h-19.9v38.9H154.6z"/>
	<path class="st0" d="M110.5,204.6h15.5l-7.3-38.4L110.5,204.6z M156.9,243.1h-20.7l-5.7-22.4h-24.9l-6.5,22.4H80.4l22.1-97.9h31.2
		L156.9,243.1z"/>
	<polygon class="st0" points="438.6,225.5 438.6,145.2 419.1,145.2 419.1,243.1 453.3,243.1 453.3,225.5 	"/>
	<g>
		<path class="st0" d="M327.5,45.1l0.1,0c0,0-6.4-8.4-23.7-11c0,0-12.4-2.1-15.2-2.7l-0.2,0c-0.7-0.1-1.6-0.3-2.5-0.5
			c1.3-5.3,13.5-26.4,14.1-27.7c0.1-0.1,1.2-2.1,1.7-3.1l-8.2,0c-0.3,0.7-1.2,2.6-1.2,2.6l-6.3,13.1c-3.6,7.8-5.5,11.1-6.4,12.5
			c-0.4-0.2-0.7-0.3-0.7-0.3l-0.2-0.1c-2.6-1.4-13.5-7.7-13.5-7.7C251,11,240,13.3,240,13.3c-14.5,1.5-27.8,11.4-33.8,26.9
			c-1.1,2.5-2,5.2-2.7,8.2c-2.6,11.1-2.2,25.4,1.9,40.1c2,7.3,4.8,14.1,8,20c3.2,5.9,6.9,11.1,10.9,15.2c1.5,1.4,3.4,3,6,4.1
			c3.9,1.5,7.7,1.1,9.4,0.9c2.2-0.3,3.9-0.4,5.2-0.5l0,0c0,0,3-0.3,5.2,1.8l0,0c1,0.9,2.2,2.1,3.8,3.8c1.2,1.3,3.9,4,7.8,5.4
			c2.7,0.8,5.2,0.8,7.2,0.7c5.7-0.6,11.8-2.2,18.1-4.6c6.3-2.5,12.7-5.9,19-10.2c12.6-8.7,22.1-19.3,27.2-29.5
			c1.4-2.7,2.4-5.4,3.2-8C341.7,71.7,337.8,55.2,327.5,45.1z M218.7,46.1l3.5-2.7c0,0,14.5-12,30.1-5.7c13,5.2,12.4,18.3,11.9,22.6
			l8.2-16.6l5.9,0c-2.3,4.7-19.7,39.7-22.3,44.8c4.9,1,18.5,3.7,18.5,3.7l-1.1,5.2l-25.4-5.1l1.6-3.1l13.4-27l-12.3-4.5
			c1.8-1.1,3.3-2.8,4-4.9c1.8-4.9-0.8-10.4-5.7-12.1c-4.9-1.8-10.4,0.8-12.2,5.7c-0.8,2.1-0.7,4.3,0,6.3L218.7,46.1z M255.2,117.8
			c-1-0.3-2.1-0.6-3.2-1c-1-0.4-2-0.8-2.9-1.2c-17.3-7.7-21.2-33.6-21.2-33.6l2.7-0.8c6.5,17.7,17.9,24.2,22.5,26.2
			c0.6,0.3,1.3,0.5,2,0.8c0.6,0.2,1.3,0.4,1.9,0.6c4.6,1.5,17.7,4,34.3-5.6l1.5,2.4C292.8,105.6,273.3,122.8,255.2,117.8z
			 M304.3,77.1c1.8-1.1,3.3-2.8,4-4.9c1.8-4.9-0.8-10.4-5.7-12.2c-4.9-1.8-10.4,0.8-12.1,5.7c-0.8,2.1-0.7,4.3-0.1,6.3l-13-4.7
			l0.4-0.7c0,0,8.3-16.1,24.3-10.9c16,5.2,19.5,23.7,19.5,23.7l0.9,4.3L304.3,77.1z"/>
		<path class="st0" d="M263.9,62.5l0.1-0.8c0,0,0.1-0.5,0.2-1.4l-1,2L263.9,62.5z"/>
	</g>
	<path class="st0" d="M359.8,17.8c0,0-8.9-8.9-18.5-12.3c-3.8-1.3-7.3-1.7-10.3-1.6c-3.5,0.2-8,1.4-11.1,2.4l-27.3,10.1l-0.5,1
		l16.7,32.7c0,0,4.2,8.5,14,12.5c11.5,4.6,20.8,1.9,20.8,1.9l52.8-10.2l0.5-0.1L359.8,17.8z"/>
</g>
</svg>
