<?xml version="1.0" encoding="utf-8"?>
<!-- Generator: Adobe Illustrator 27.9.0, SVG Export Plug-In . SVG Version: 6.00 Build 0)  -->
<svg version="1.1" id="Ebene_1" xmlns="http://www.w3.org/2000/svg" xmlns:xlink="http://www.w3.org/1999/xlink" x="0px" y="0px"
	 viewBox="0 0 115.2 25.8" style="enable-background:new 0 0 115.2 25.8;" xml:space="preserve">
<style type="text/css">
	.st0{fill:#FFFFFF;}
</style>
<g>
	<g>
		<path class="st0" d="M33.1,9.3c-1.5,0-2.5,0.6-3.1,1.9c-0.3,0.7-0.4,1.5-0.4,2.6v9.2h-4.4V6h4.3v2.5C30,7.6,30.5,7,31.1,6.6
			c0.9-0.7,2.1-1,3.5-1c1.8,0,3.2,0.5,4.3,1.4c1.1,0.9,1.7,2.4,1.7,4.6v11.4H36V12.6c0-0.9-0.1-1.6-0.4-2.1
			C35.2,9.7,34.3,9.3,33.1,9.3z"/>
		<path class="st0" d="M43.5,7.8c1.2-1.5,3.2-2.2,6-2.2c1.9,0,3.5,0.4,4.9,1.1c1.4,0.7,2.2,2.1,2.2,4.2v7.8c0,0.5,0,1.2,0,2
			c0,0.6,0.1,1,0.3,1.2c0.1,0.2,0.4,0.4,0.7,0.5v0.7h-4.8c-0.1-0.3-0.2-0.7-0.3-1c-0.1-0.3-0.1-0.6-0.1-1c-0.6,0.7-1.3,1.2-2.1,1.7
			c-1,0.5-2,0.8-3.2,0.8c-1.5,0-2.8-0.4-3.8-1.3c-1-0.9-1.5-2.1-1.5-3.7c0-2.1,0.8-3.6,2.4-4.5c0.9-0.5,2.2-0.9,3.9-1.1l1.5-0.2
			c0.8-0.1,1.4-0.2,1.8-0.4c0.6-0.3,0.9-0.7,0.9-1.3c0-0.7-0.2-1.2-0.7-1.4c-0.5-0.3-1.2-0.4-2.1-0.4c-1,0-1.8,0.3-2.2,0.8
			c-0.3,0.4-0.5,0.9-0.6,1.6h-4.3C42.4,10,42.8,8.8,43.5,7.8z M46.8,19.7c0.4,0.3,0.9,0.5,1.5,0.5c1,0,1.8-0.3,2.6-0.8
			c0.8-0.6,1.2-1.6,1.3-3.1v-1.6c-0.3,0.2-0.6,0.3-0.8,0.4c-0.3,0.1-0.7,0.2-1.2,0.3l-1,0.2c-0.9,0.2-1.6,0.4-2,0.6
			c-0.7,0.4-1,1-1,1.9C46.2,18.8,46.4,19.4,46.8,19.7z"/>
		<path class="st0" d="M58.9,0h4.4v22.9h-4.4V0z"/>
		<path class="st0" d="M76.6,20.5c0,0.1-0.1,0.2-0.3,0.5c-0.2,0.3-0.4,0.5-0.6,0.7c-0.7,0.6-1.4,1-2,1.3c-0.6,0.2-1.4,0.3-2.3,0.3
			c-2.5,0-4.2-0.9-5.1-2.7c-0.5-1-0.7-2.5-0.7-4.4V6h4.5v10.2c0,1,0.1,1.7,0.3,2.2c0.4,0.9,1.2,1.3,2.4,1.3c1.5,0,2.6-0.6,3.1-1.8
			c0.3-0.7,0.4-1.5,0.4-2.6V6h4.5v17h-4.3V20.5z"/>
		<path class="st0" d="M91.2,9.3c-1.5,0-2.5,0.6-3.1,1.9c-0.3,0.7-0.4,1.5-0.4,2.6v9.2h-4.4V6h4.3v2.5c0.6-0.9,1.1-1.5,1.6-1.9
			c0.9-0.7,2.1-1,3.5-1c1.8,0,3.2,0.5,4.3,1.4c1.1,0.9,1.7,2.4,1.7,4.6v11.4H94V12.6c0-0.9-0.1-1.6-0.4-2.1
			C93.2,9.7,92.4,9.3,91.2,9.3z"/>
		<path class="st0" d="M112.5,6.7c1.3,0.9,2.1,2.3,2.3,4.4h-4.4c-0.1-0.6-0.2-1-0.5-1.4c-0.5-0.6-1.3-0.9-2.5-0.9
			c-1,0-1.7,0.2-2.1,0.5c-0.4,0.3-0.6,0.7-0.6,1.1c0,0.5,0.2,0.9,0.7,1.1c0.4,0.2,2,0.6,4.6,1.2c1.8,0.4,3.1,1,4,1.9
			c0.9,0.9,1.3,1.9,1.3,3.2c0,1.7-0.6,3.1-1.9,4.1c-1.2,1.1-3.2,1.6-5.8,1.6c-2.7,0-4.6-0.6-5.9-1.7c-1.3-1.1-1.9-2.6-1.9-4.3h4.5
			c0.1,0.8,0.3,1.3,0.6,1.7c0.5,0.6,1.6,0.9,3,0.9c0.9,0,1.6-0.1,2.1-0.4c0.5-0.3,0.8-0.6,0.8-1.2c0-0.5-0.2-0.9-0.6-1.1
			c-0.4-0.3-2-0.7-4.6-1.3c-1.9-0.5-3.3-1.1-4.1-1.8c-0.8-0.7-1.2-1.7-1.2-3c0-1.6,0.6-2.9,1.8-4s3-1.7,5.2-1.7
			C109.4,5.5,111.1,5.9,112.5,6.7z"/>
	</g>
</g>
<g>
	<g>
		<g>
			<polygon class="st0" points="0,22.5 7.4,19.5 14.7,22.5 22.1,19.5 22.1,22.7 14.7,25.8 7.4,22.7 0,25.8 0,25.8 			"/>
			<polygon class="st0" points="0,25.8 0,25.8 0,25.8 			"/>
		</g>
	</g>
	<g>
		<g>
			<polygon class="st0" points="0,16 7.4,13 14.7,16 22.1,13 22.1,16.2 14.7,19.3 7.4,16.2 0,19.3 0,19.3 			"/>
			<polygon class="st0" points="0,19.3 0,19.3 0,19.3 			"/>
		</g>
	</g>
	<g>
		<g>
			<polygon class="st0" points="0,9.5 7.4,6.5 14.7,9.5 22.1,6.5 22.1,9.7 14.7,12.8 7.4,9.7 0,12.8 0,12.8 			"/>
			<polygon class="st0" points="0,12.8 0,12.8 0,12.8 			"/>
		</g>
	</g>
	<g>
		<g>
			<polygon class="st0" points="0,3 7.4,0 14.7,3 22.1,0 22.1,3.2 14.7,6.3 7.4,3.2 0,6.3 0,6.3 			"/>
			<polygon class="st0" points="0,6.3 0,6.3 0,6.3 			"/>
		</g>
	</g>
</g>
</svg>
