<?xml version="1.0" encoding="utf-8"?>
<!-- Generator: Adobe Illustrator 27.9.0, SVG Export Plug-In . SVG Version: 6.00 Build 0)  -->
<svg version="1.1" id="Ebene_1" xmlns="http://www.w3.org/2000/svg" xmlns:xlink="http://www.w3.org/1999/xlink" x="0px" y="0px"
	 viewBox="0 0 22.1 25.8" style="enable-background:new 0 0 22.1 25.8;" xml:space="preserve">
<style type="text/css">
	.st0{fill:#FFFFFF;}
</style>
<g>
	<g>
		<g>
			<polygon class="st0" points="0,22.5 7.4,19.5 14.7,22.5 22.1,19.5 22.1,22.7 14.7,25.8 7.4,22.7 0,25.8 0,25.8 			"/>
			<polygon class="st0" points="0,25.8 0,25.8 0,25.8 			"/>
		</g>
	</g>
	<g>
		<g>
			<polygon class="st0" points="0,16 7.4,13 14.7,16 22.1,13 22.1,16.2 14.7,19.3 7.4,16.2 0,19.3 0,19.3 			"/>
			<polygon class="st0" points="0,19.3 0,19.3 0,19.3 			"/>
		</g>
	</g>
	<g>
		<g>
			<polygon class="st0" points="0,9.5 7.4,6.5 14.7,9.5 22.1,6.5 22.1,9.7 14.7,12.8 7.4,9.7 0,12.8 0,12.8 			"/>
			<polygon class="st0" points="0,12.8 0,12.8 0,12.8 			"/>
		</g>
	</g>
	<g>
		<g>
			<polygon class="st0" points="0,3 7.4,0 14.7,3 22.1,0 22.1,3.2 14.7,6.3 7.4,3.2 0,6.3 0,6.3 			"/>
			<polygon class="st0" points="0,6.3 0,6.3 0,6.3 			"/>
		</g>
	</g>
</g>
</svg>
